<svg width="316" height="23" viewBox="0 0 316 23" fill="none" xmlns="http://www.w3.org/2000/svg">
<g clip-path="url(#clip0_674_2045)">
<path d="M10.7769 0H0.425762C0.312972 0 0.204802 0.044715 0.125048 0.124308C0.0452938 0.203901 0.000488281 0.311852 0.000488281 0.424414V20.5756C0.000488281 20.6881 0.0452938 20.7961 0.125048 20.8757C0.204802 20.9553 0.312972 21 0.425762 21H10.7769C13.5144 20.9223 16.1137 19.7824 18.0225 17.8226C19.9312 15.8627 20.9991 13.2373 20.9991 10.5042C20.9991 7.77116 19.9312 5.14578 18.0225 3.18592C16.1137 1.22606 13.5144 0.086189 10.7769 0.00848847V0ZM11.7891 17.8339C10.2229 18.1029 8.61163 17.8674 7.18851 17.1616C5.7654 16.4557 4.60433 15.3162 3.87343 13.9079C3.14252 12.4996 2.87973 10.8958 3.12309 9.32851C3.36645 7.76126 4.10334 6.31198 5.22706 5.19054C6.35077 4.0691 7.80298 3.3337 9.37341 3.09083C10.9438 2.84796 12.551 3.11022 13.9621 3.83965C15.3732 4.56907 16.5151 5.7278 17.2223 7.14803C17.9296 8.56827 18.1655 10.1763 17.896 11.7393C17.6337 13.2603 16.9057 14.6629 15.8122 15.7543C14.7186 16.8456 13.3132 17.5721 11.7891 17.8339" fill="#1E2B3C"/>
</g>
<path d="M39.0931 3.00477H40.9036C40.9675 3.00477 41.0101 3.04737 41.0101 3.11127V17.8935C41.0101 17.9574 40.9675 18 40.9036 18H39.0931C39.0292 18 38.9866 17.9574 38.9866 17.8935V11.2905C38.9866 11.2266 38.944 11.184 38.8801 11.184H32.128C32.0641 11.184 32.0215 11.2266 32.0215 11.2692V17.8935C32.0215 17.9574 31.9789 18 31.915 18H30.1045C30.0406 18 29.998 17.9574 29.998 17.8935V3.11127C29.998 3.04737 30.0406 3.00477 30.1045 3.00477H31.915C31.9789 3.00477 32.0215 3.04737 32.0215 3.11127V9.26697C32.0215 9.33087 32.0641 9.37347 32.128 9.37347H38.8801C38.944 9.37347 38.9866 9.33087 38.9866 9.26697V3.11127C38.9866 3.04737 39.0292 3.00477 39.0931 3.00477Z" fill="#1E2B3C"/>
<path d="M41.6702 22.1109V20.5134C41.6702 20.4495 41.7128 20.4069 41.7767 20.4069H43.0334C43.8854 20.4069 44.1836 20.0022 44.1836 19.3419V7.32867C44.1836 7.26477 44.2262 7.22217 44.2901 7.22217H46.1006C46.1645 7.22217 46.2071 7.26477 46.2071 7.32867V19.704C46.2071 21.4506 45.1847 22.26 43.4168 22.2174H41.7767C41.7128 22.2174 41.6702 22.1748 41.6702 22.1109ZM46.2682 5.37105H44.1382C44.0743 5.37105 44.0317 5.32845 44.0317 5.26455V3.11325C44.0317 3.04935 44.0743 3.00675 44.1382 3.00675H46.2682C46.3321 3.00675 46.3747 3.04935 46.3747 3.11325V5.26455C46.3747 5.32845 46.3321 5.37105 46.2682 5.37105Z" fill="#1E2B3C"/>
<path d="M58.7137 13.3353H50.8114C50.7475 13.3353 50.7049 13.3779 50.7049 13.4418C50.7049 14.9967 51.8338 16.4025 53.7295 16.4025C55.2418 16.4025 55.9873 15.7635 56.4346 14.9115C56.4772 14.8263 56.5198 14.805 56.5837 14.805H58.4794C58.5433 14.805 58.6072 14.8263 58.5859 14.9115C58.0321 16.9989 56.1364 18.213 53.7295 18.213C50.5345 18.213 48.5536 15.9339 48.5536 12.6111C48.5536 9.26697 50.428 7.00917 53.7295 7.00917C57.0523 7.00917 58.9267 9.28827 58.9267 12.6111C58.9267 12.8241 58.8628 13.0584 58.8202 13.2288C58.7989 13.2927 58.7776 13.3353 58.7137 13.3353ZM56.7115 11.6313C56.7115 10.4172 55.8382 8.81967 53.7295 8.81967C51.6634 8.81967 50.7049 10.6302 50.7049 11.6313C50.7049 11.6952 50.7688 11.7378 50.8114 11.7378H56.605C56.6689 11.7378 56.7115 11.6952 56.7115 11.6313Z" fill="#1E2B3C"/>
<path d="M63.2638 3.11127V17.8935C63.2638 17.9574 63.2212 18 63.1573 18H61.3468C61.2829 18 61.2403 17.9574 61.2403 17.8935C61.2403 12.9732 61.2403 8.03157 61.2403 3.11127C61.2403 3.04737 61.2829 3.00477 61.3468 3.00477H63.1573C63.2212 3.00477 63.2638 3.04737 63.2638 3.11127Z" fill="#1E2B3C"/>
<path d="M66.5262 7.22217H68.1237C68.1876 7.22217 68.2089 7.26477 68.2302 7.32867L68.4432 8.20197C68.4858 8.32977 68.6136 8.28717 68.6562 8.22327C69.21 7.60557 70.6371 7.00917 71.7021 7.00917C74.8119 7.00917 76.7715 9.28827 76.7715 12.6111C76.7715 15.9339 74.8119 18.213 71.7021 18.213C70.2111 18.213 68.9118 17.2971 68.6562 16.9989C68.5497 16.8711 68.4432 16.9563 68.4432 17.0415V22.1109C68.4432 22.1748 68.4006 22.2174 68.3367 22.2174H66.5262C66.4623 22.2174 66.4197 22.1748 66.4197 22.1109V7.32867C66.4197 7.26477 66.4623 7.22217 66.5262 7.22217ZM74.748 12.6111C74.748 10.3959 73.5339 8.81967 71.4891 8.81967C69.5508 8.81967 68.4432 10.3959 68.4432 12.6111C68.4432 14.8263 69.5508 16.4025 71.4891 16.4025C73.5339 16.4025 74.748 14.8263 74.748 12.6111Z" fill="#1E2B3C"/>
<path d="M88.4588 13.3353H80.5565C80.4926 13.3353 80.45 13.3779 80.45 13.4418C80.45 14.9967 81.5789 16.4025 83.4746 16.4025C84.9869 16.4025 85.7324 15.7635 86.1797 14.9115C86.2223 14.8263 86.2649 14.805 86.3288 14.805H88.2245C88.2884 14.805 88.3523 14.8263 88.331 14.9115C87.7772 16.9989 85.8815 18.213 83.4746 18.213C80.2796 18.213 78.2987 15.9339 78.2987 12.6111C78.2987 9.26697 80.1731 7.00917 83.4746 7.00917C86.7974 7.00917 88.6718 9.28827 88.6718 12.6111C88.6718 12.8241 88.6079 13.0584 88.5653 13.2288C88.544 13.2927 88.5227 13.3353 88.4588 13.3353ZM86.4566 11.6313C86.4566 10.4172 85.5833 8.81967 83.4746 8.81967C81.4085 8.81967 80.45 10.6302 80.45 11.6313C80.45 11.6952 80.5139 11.7378 80.5565 11.7378H86.3501C86.414 11.7378 86.4566 11.6952 86.4566 11.6313Z" fill="#1E2B3C"/>
<path d="M99.2062 10.8645H97.3744C97.3105 10.8645 97.2679 10.8219 97.2679 10.758C97.2679 9.58647 96.3307 8.81967 94.6054 8.81967C93.0079 8.81967 92.305 9.52257 92.305 10.1829C92.305 11.397 93.8386 11.4183 94.9036 11.5674C97.0336 11.8656 99.5896 12.0573 99.5896 14.7837C99.5896 17.2119 97.5661 18.213 94.9036 18.213C91.666 18.213 90.0898 16.509 90.0898 14.4642C90.0898 14.4003 90.1324 14.3577 90.1963 14.3577H91.9855C92.0494 14.3577 92.1133 14.4003 92.1133 14.4642C92.1133 15.5292 93.1996 16.4025 94.9036 16.4025C95.9899 16.4025 97.5661 16.1682 97.5661 14.7837C97.5661 13.5696 95.7982 13.4844 94.9036 13.3779C92.8588 13.1436 90.2815 12.8241 90.2815 10.1829C90.2815 8.43627 91.9642 7.00917 94.6054 7.00917C97.2253 7.00917 99.2914 8.24457 99.2914 10.758C99.2914 10.8219 99.2701 10.8645 99.2062 10.8645Z" fill="#1E2B3C"/>
<path d="M103.971 7.32867V17.8935C103.971 17.9574 103.928 18 103.864 18H102.054C101.99 18 101.947 17.9574 101.947 17.8935V7.32867C101.947 7.26477 101.99 7.22217 102.054 7.22217H103.864C103.928 7.22217 103.971 7.26477 103.971 7.32867ZM104.013 5.37989H101.883C101.819 5.37989 101.777 5.33729 101.777 5.27339V3.12209C101.777 3.05819 101.819 3.01559 101.883 3.01559H104.013C104.077 3.01559 104.12 3.05819 104.12 3.12209V5.27339C104.12 5.33729 104.077 5.37989 104.013 5.37989Z" fill="#1E2B3C"/>
<path d="M116.563 18H114.965C114.901 18 114.88 17.9574 114.859 17.8935L114.646 17.0415C114.603 16.9137 114.497 16.935 114.433 16.9989C113.858 17.574 112.452 18.213 111.387 18.213C108.277 18.213 106.317 15.9339 106.317 12.6111C106.317 9.28827 108.277 7.00917 111.387 7.00917C112.878 7.00917 114.177 7.92507 114.433 8.22327C114.539 8.35107 114.646 8.26587 114.646 8.18067V3.11127C114.646 3.04737 114.688 3.00477 114.752 3.00477H116.563C116.627 3.00477 116.669 3.04737 116.669 3.11127V17.8935C116.669 17.9574 116.627 18 116.563 18ZM108.341 12.6111C108.341 14.8263 109.555 16.4025 111.6 16.4025C113.538 16.4025 114.646 14.8263 114.646 12.6111C114.646 10.3959 113.538 8.81967 111.6 8.81967C109.555 8.81967 108.341 10.3959 108.341 12.6111Z" fill="#1E2B3C"/>
<path d="M129.166 13.3353H121.264C121.2 13.3353 121.157 13.3779 121.157 13.4418C121.157 14.9967 122.286 16.4025 124.182 16.4025C125.694 16.4025 126.44 15.7635 126.887 14.9115C126.929 14.8263 126.972 14.805 127.036 14.805H128.932C128.996 14.805 129.059 14.8263 129.038 14.9115C128.484 16.9989 126.589 18.213 124.182 18.213C120.987 18.213 119.006 15.9339 119.006 12.6111C119.006 9.26697 120.88 7.00917 124.182 7.00917C127.505 7.00917 129.379 9.28827 129.379 12.6111C129.379 12.8241 129.315 13.0584 129.272 13.2288C129.251 13.2927 129.23 13.3353 129.166 13.3353ZM127.164 11.6313C127.164 10.4172 126.29 8.81967 124.182 8.81967C122.116 8.81967 121.157 10.6302 121.157 11.6313C121.157 11.6952 121.221 11.7378 121.264 11.7378H127.057C127.121 11.7378 127.164 11.6952 127.164 11.6313Z" fill="#1E2B3C"/>
<path d="M137.614 8.81967H136.528C134.738 8.81967 133.716 10.3746 133.716 12.036V17.8935C133.716 17.9574 133.673 18 133.61 18H131.799C131.735 18 131.693 17.9574 131.693 17.8935V7.32867C131.693 7.26477 131.735 7.22217 131.799 7.22217H133.396C133.46 7.22217 133.482 7.26477 133.503 7.32867L133.716 8.28717C133.759 8.41497 133.886 8.37237 133.95 8.30847C134.675 7.58427 135.463 7.00917 136.528 7.00917H137.614C137.678 7.00917 137.72 7.05177 137.72 7.11567V8.71317C137.72 8.77707 137.678 8.81967 137.614 8.81967Z" fill="#1E2B3C"/>
<path d="M148.89 3.11127V4.70877C148.89 4.77267 148.848 4.81527 148.784 4.81527H147.378C146.739 4.81527 146.377 5.21997 146.377 5.88027V7.11567C146.377 7.17957 146.419 7.22217 146.483 7.22217H148.784C148.848 7.22217 148.89 7.26477 148.89 7.32867V8.71317C148.89 8.77707 148.848 8.81967 148.784 8.81967H146.483C146.419 8.81967 146.377 8.86227 146.377 8.92617V17.8935C146.377 17.9574 146.334 18 146.27 18H144.46C144.396 18 144.353 17.9574 144.353 17.8935V8.92617C144.353 8.86227 144.311 8.81967 144.247 8.81967H142.351C142.287 8.81967 142.245 8.77707 142.245 8.71317V7.32867C142.245 7.26477 142.287 7.22217 142.351 7.22217H144.247C144.311 7.22217 144.353 7.17957 144.353 7.11567V5.51817C144.353 3.77157 145.376 2.96217 147.357 3.00477H148.784C148.848 3.00477 148.89 3.04737 148.89 3.11127Z" fill="#1E2B3C"/>
<path d="M160.106 12.6111C160.106 15.9339 158.147 18.213 154.824 18.213C151.48 18.213 149.541 15.9339 149.541 12.6111C149.541 9.26697 151.48 7.00917 154.824 7.00917C158.147 7.00917 160.106 9.28827 160.106 12.6111ZM158.083 12.6111C158.083 10.3959 156.869 8.81967 154.824 8.81967C152.8 8.81967 151.565 10.3959 151.565 12.6111C151.565 14.8263 152.8 16.4025 154.824 16.4025C156.869 16.4025 158.083 14.8263 158.083 12.6111Z" fill="#1E2B3C"/>
<path d="M168.378 8.81967H167.292C165.503 8.81967 164.48 10.3746 164.48 12.036V17.8935C164.48 17.9574 164.438 18 164.374 18H162.563C162.499 18 162.457 17.9574 162.457 17.8935V7.32867C162.457 7.26477 162.499 7.22217 162.563 7.22217H164.161C164.225 7.22217 164.246 7.26477 164.267 7.32867L164.48 8.28717C164.523 8.41497 164.651 8.37237 164.715 8.30847C165.439 7.58427 166.227 7.00917 167.292 7.00917H168.378C168.442 7.00917 168.485 7.05177 168.485 7.11567V8.71317C168.485 8.77707 168.442 8.81967 168.378 8.81967Z" fill="#1E2B3C"/>
<path d="M179.655 3.11127V4.70877C179.655 4.77267 179.612 4.81527 179.548 4.81527H178.142C177.503 4.81527 177.141 5.21997 177.141 5.88027V7.11567C177.141 7.17957 177.184 7.22217 177.248 7.22217H179.548C179.612 7.22217 179.655 7.26477 179.655 7.32867V8.71317C179.655 8.77707 179.612 8.81967 179.548 8.81967H177.248C177.184 8.81967 177.141 8.86227 177.141 8.92617V17.8935C177.141 17.9574 177.099 18 177.035 18H175.224C175.16 18 175.118 17.9574 175.118 17.8935V8.92617C175.118 8.86227 175.075 8.81967 175.011 8.81967H173.116C173.052 8.81967 173.009 8.77707 173.009 8.71317V7.32867C173.009 7.26477 173.052 7.22217 173.116 7.22217H175.011C175.075 7.22217 175.118 7.17957 175.118 7.11567V5.51817C175.118 3.77157 176.14 2.96217 178.121 3.00477H179.548C179.612 3.00477 179.655 3.04737 179.655 3.11127Z" fill="#1E2B3C"/>
<path d="M190.466 13.3353H182.564C182.5 13.3353 182.457 13.3779 182.457 13.4418C182.457 14.9967 183.586 16.4025 185.482 16.4025C186.994 16.4025 187.739 15.7635 188.187 14.9115C188.229 14.8263 188.272 14.805 188.336 14.805H190.232C190.295 14.805 190.359 14.8263 190.338 14.9115C189.784 16.9989 187.889 18.213 185.482 18.213C182.287 18.213 180.306 15.9339 180.306 12.6111C180.306 9.26697 182.18 7.00917 185.482 7.00917C188.804 7.00917 190.679 9.28827 190.679 12.6111C190.679 12.8241 190.615 13.0584 190.572 13.2288C190.551 13.2927 190.53 13.3353 190.466 13.3353ZM188.464 11.6313C188.464 10.4172 187.59 8.81967 185.482 8.81967C183.416 8.81967 182.457 10.6302 182.457 11.6313C182.457 11.6952 182.521 11.7378 182.564 11.7378H188.357C188.421 11.7378 188.464 11.6952 188.464 11.6313Z" fill="#1E2B3C"/>
<path d="M195.016 3.11127V17.8935C195.016 17.9574 194.973 18 194.909 18H193.099C193.035 18 192.992 17.9574 192.992 17.8935C192.992 12.9732 192.992 8.03157 192.992 3.11127C192.992 3.04737 193.035 3.00477 193.099 3.00477H194.909C194.973 3.00477 195.016 3.04737 195.016 3.11127Z" fill="#1E2B3C"/>
<path d="M200.195 3.11127V17.8935C200.195 17.9574 200.153 18 200.089 18H198.278C198.214 18 198.172 17.9574 198.172 17.8935C198.172 12.9732 198.172 8.03157 198.172 3.11127C198.172 3.04737 198.214 3.00477 198.278 3.00477H200.089C200.153 3.00477 200.195 3.04737 200.195 3.11127Z" fill="#1E2B3C"/>
<path d="M212.702 13.3353H204.8C204.736 13.3353 204.693 13.3779 204.693 13.4418C204.693 14.9967 205.822 16.4025 207.718 16.4025C209.23 16.4025 209.975 15.7635 210.423 14.9115C210.465 14.8263 210.508 14.805 210.572 14.805H212.468C212.531 14.805 212.595 14.8263 212.574 14.9115C212.02 16.9989 210.125 18.213 207.718 18.213C204.523 18.213 202.542 15.9339 202.542 12.6111C202.542 9.26697 204.416 7.00917 207.718 7.00917C211.04 7.00917 212.915 9.28827 212.915 12.6111C212.915 12.8241 212.851 13.0584 212.808 13.2288C212.787 13.2927 212.766 13.3353 212.702 13.3353ZM210.7 11.6313C210.7 10.4172 209.826 8.81967 207.718 8.81967C205.652 8.81967 204.693 10.6302 204.693 11.6313C204.693 11.6952 204.757 11.7378 204.8 11.7378H210.593C210.657 11.7378 210.7 11.6952 210.7 11.6313Z" fill="#1E2B3C"/>
<path d="M223.449 10.8645H221.617C221.554 10.8645 221.511 10.8219 221.511 10.758C221.511 9.58647 220.574 8.81967 218.848 8.81967C217.251 8.81967 216.548 9.52257 216.548 10.1829C216.548 11.397 218.082 11.4183 219.147 11.5674C221.277 11.8656 223.833 12.0573 223.833 14.7837C223.833 17.2119 221.809 18.213 219.147 18.213C215.909 18.213 214.333 16.509 214.333 14.4642C214.333 14.4003 214.375 14.3577 214.439 14.3577H216.229C216.292 14.3577 216.356 14.4003 216.356 14.4642C216.356 15.5292 217.443 16.4025 219.147 16.4025C220.233 16.4025 221.809 16.1682 221.809 14.7837C221.809 13.5696 220.041 13.4844 219.147 13.3779C217.102 13.1436 214.525 12.8241 214.525 10.1829C214.525 8.43627 216.207 7.00917 218.848 7.00917C221.468 7.00917 223.534 8.24457 223.534 10.758C223.534 10.8219 223.513 10.8645 223.449 10.8645Z" fill="#1E2B3C"/>
<path d="M228.214 3.11127V17.8935C228.214 17.9574 228.171 18 228.107 18H226.297C226.233 18 226.19 17.9574 226.19 17.8935C226.19 12.9732 226.19 8.03157 226.19 3.11127C226.19 3.04737 226.233 3.00477 226.297 3.00477H228.107C228.171 3.00477 228.214 3.04737 228.214 3.11127Z" fill="#1E2B3C"/>
<path d="M241.189 8.24457L240.316 9.13917C240.231 9.22437 240.273 9.28827 240.316 9.37347C240.827 10.2681 241.125 11.3544 241.125 12.6111C241.125 15.9339 239.166 18.213 235.843 18.213C234.458 18.213 233.329 17.8509 232.477 17.1693C232.435 17.1267 232.35 17.1054 232.286 17.1693L231.498 17.9574C231.455 18 231.391 18 231.349 17.9574L230.518 17.1267C230.475 17.0841 230.475 17.0202 230.518 16.9776L231.37 16.1256C231.412 16.083 231.455 16.0404 231.391 15.9339C230.837 15.0393 230.56 13.9317 230.56 12.6111C230.56 9.26697 232.499 7.00917 235.843 7.00917C237.206 7.00917 238.335 7.41387 239.208 8.09547C239.293 8.15937 239.336 8.15937 239.4 8.09547L240.209 7.26477C240.252 7.22217 240.316 7.22217 240.358 7.26477L241.189 8.09547C241.232 8.13807 241.232 8.20197 241.189 8.24457ZM232.584 12.6111C232.584 13.2714 232.69 13.8678 232.882 14.379C232.925 14.4855 233.031 14.4642 233.074 14.4216L237.802 9.69297C237.888 9.60777 237.888 9.52257 237.802 9.45867C237.27 9.05397 236.61 8.81967 235.843 8.81967C233.819 8.81967 232.584 10.3959 232.584 12.6111ZM239.102 12.6111C239.102 11.9721 238.995 11.3757 238.804 10.8645C238.782 10.8006 238.676 10.758 238.591 10.8432L233.883 15.5718C233.798 15.657 233.819 15.7422 233.905 15.8061C234.416 16.2108 235.055 16.4025 235.843 16.4025C237.888 16.4025 239.102 14.8263 239.102 12.6111Z" fill="#1E2B3C"/>
<path d="M251.697 10.8645H249.865C249.801 10.8645 249.758 10.8219 249.758 10.758C249.758 9.58647 248.821 8.81967 247.096 8.81967C245.498 8.81967 244.796 9.52257 244.796 10.1829C244.796 11.397 246.329 11.4183 247.394 11.5674C249.524 11.8656 252.08 12.0573 252.08 14.7837C252.08 17.2119 250.057 18.213 247.394 18.213C244.157 18.213 242.58 16.509 242.58 14.4642C242.58 14.4003 242.623 14.3577 242.687 14.3577H244.476C244.54 14.3577 244.604 14.4003 244.604 14.4642C244.604 15.5292 245.69 16.4025 247.394 16.4025C248.48 16.4025 250.057 16.1682 250.057 14.7837C250.057 13.5696 248.289 13.4844 247.394 13.3779C245.349 13.1436 242.772 12.8241 242.772 10.1829C242.772 8.43627 244.455 7.00917 247.096 7.00917C249.716 7.00917 251.782 8.24457 251.782 10.758C251.782 10.8219 251.761 10.8645 251.697 10.8645Z" fill="#1E2B3C"/>
<path d="M254.544 7.22217H256.142C256.206 7.22217 256.227 7.26477 256.248 7.32867L256.461 8.28717C256.483 8.41497 256.653 8.37237 256.696 8.30847C257.122 7.66947 258.059 7.00917 259.486 7.00917C262.575 7.00917 264.129 9.26697 264.129 12.036V17.8935C264.129 17.9574 264.087 18 264.023 18H262.212C262.149 18 262.106 17.9574 262.106 17.8935V12.036C262.106 10.4172 261.382 8.81967 259.273 8.81967C257.484 8.81967 256.461 10.3746 256.461 12.036V17.8935C256.461 17.9574 256.419 18 256.355 18H254.544C254.481 18 254.438 17.9574 254.438 17.8935V7.32867C254.438 7.26477 254.481 7.22217 254.544 7.22217Z" fill="#1E2B3C"/>
<path d="M269.129 7.32867V17.8935C269.129 17.9574 269.086 18 269.023 18H267.212C267.148 18 267.106 17.9574 267.106 17.8935V7.32867C267.106 7.26477 267.148 7.22217 267.212 7.22217H269.023C269.086 7.22217 269.129 7.26477 269.129 7.32867ZM269.169 5.37599H267.039C266.976 5.37599 266.933 5.33339 266.933 5.26949V3.11819C266.933 3.05429 266.976 3.01169 267.039 3.01169H269.169C269.233 3.01169 269.276 3.05429 269.276 3.11819V5.26949C269.276 5.33339 269.233 5.37599 269.169 5.37599Z" fill="#1E2B3C"/>
<path d="M272.391 7.22217H273.989C274.053 7.22217 274.074 7.26477 274.095 7.32867L274.308 8.28717C274.33 8.41497 274.5 8.37237 274.543 8.30847C274.969 7.66947 275.906 7.00917 277.333 7.00917C280.422 7.00917 281.976 9.26697 281.976 12.036V17.8935C281.976 17.9574 281.934 18 281.87 18H280.059C279.996 18 279.953 17.9574 279.953 17.8935V12.036C279.953 10.4172 279.229 8.81967 277.12 8.81967C275.331 8.81967 274.308 10.3746 274.308 12.036V17.8935C274.308 17.9574 274.266 18 274.202 18H272.391C272.328 18 272.285 17.9574 272.285 17.8935V7.32867C272.285 7.26477 272.328 7.22217 272.391 7.22217Z" fill="#1E2B3C"/>
<path d="M286.742 19.2567C286.912 19.7466 287.679 20.6199 289.447 20.6199C291.683 20.6199 292.472 19.0863 292.472 17.5953V17.0202C292.472 16.935 292.344 16.8498 292.259 16.9776C292.024 17.2758 290.704 18.213 289.213 18.213C286.316 18.213 284.143 15.9339 284.143 12.6111C284.143 9.28827 286.103 7.00917 289.213 7.00917C290.278 7.00917 291.662 7.60557 292.259 8.20197C292.322 8.26587 292.429 8.30847 292.472 8.18067L292.685 7.32867C292.706 7.26477 292.727 7.22217 292.791 7.22217H294.389C294.452 7.22217 294.495 7.26477 294.495 7.32867V17.5953C294.495 20.4708 292.45 22.4304 289.447 22.4304C286.827 22.4304 284.846 20.9607 284.676 19.2567C284.676 19.1928 284.718 19.1502 284.782 19.1502H286.635C286.699 19.1502 286.721 19.1928 286.742 19.2567ZM286.167 12.6111C286.167 14.8263 287.381 16.4025 289.426 16.4025C291.364 16.4025 292.472 14.8263 292.472 12.6111C292.472 10.3959 291.364 8.81967 289.426 8.81967C287.381 8.81967 286.167 10.3959 286.167 12.6111Z" fill="#1E2B3C"/>
<path d="M306.597 13.3353H298.694C298.63 13.3353 298.588 13.3779 298.588 13.4418C298.588 14.9967 299.717 16.4025 301.612 16.4025C303.125 16.4025 303.87 15.7635 304.318 14.9115C304.36 14.8263 304.403 14.805 304.467 14.805H306.362C306.426 14.805 306.49 14.8263 306.469 14.9115C305.915 16.9989 304.019 18.213 301.612 18.213C298.417 18.213 296.437 15.9339 296.437 12.6111C296.437 9.26697 298.311 7.00917 301.612 7.00917C304.935 7.00917 306.81 9.28827 306.81 12.6111C306.81 12.8241 306.746 13.0584 306.703 13.2288C306.682 13.2927 306.661 13.3353 306.597 13.3353ZM304.594 11.6313C304.594 10.4172 303.721 8.81967 301.612 8.81967C299.546 8.81967 298.588 10.6302 298.588 11.6313C298.588 11.6952 298.652 11.7378 298.694 11.7378H304.488C304.552 11.7378 304.594 11.6952 304.594 11.6313Z" fill="#1E2B3C"/>
<path d="M315.045 8.81967H313.958C312.169 8.81967 311.147 10.3746 311.147 12.036V17.8935C311.147 17.9574 311.104 18 311.04 18H309.23C309.166 18 309.123 17.9574 309.123 17.8935V7.32867C309.123 7.26477 309.166 7.22217 309.23 7.22217H310.827C310.891 7.22217 310.912 7.26477 310.934 7.32867L311.147 8.28717C311.189 8.41497 311.317 8.37237 311.381 8.30847C312.105 7.58427 312.893 7.00917 313.958 7.00917H315.045C315.108 7.00917 315.151 7.05177 315.151 7.11567V8.71317C315.151 8.77707 315.108 8.81967 315.045 8.81967Z" fill="#1E2B3C"/>
<defs>
<clipPath id="clip0_674_2045">
<rect width="21" height="21" fill="white" transform="translate(0.000488281)"/>
</clipPath>
</defs>
</svg>
